<?xml version="1.0" standalone="no"?>
<!DOCTYPE svg PUBLIC "-//W3C//DTD SVG 20010904//EN"
 "http://www.w3.org/TR/2001/REC-SVG-20010904/DTD/svg10.dtd">
<svg version="1.0" xmlns="http://www.w3.org/2000/svg"
 width="512.000000pt" height="512.000000pt" viewBox="0 0 512.000000 512.000000"
 preserveAspectRatio="xMidYMid meet">
<metadata>
Created by potrace 1.11, written by Peter Selinger 2001-2013
</metadata>
<g transform="translate(0.000000,512.000000) scale(0.100000,-0.100000)"
fill="#000000" stroke="none">
<path d="M1277 4039 c-170 -25 -377 -97 -522 -181 -205 -119 -399 -305 -527
-504 -86 -134 -170 -347 -205 -521 -24 -123 -24 -423 0 -546 59 -293 191 -547
396 -761 230 -239 514 -387 846 -441 76 -13 282 -15 1297 -15 1149 0 1211 1
1320 19 307 53 565 188 793 416 222 221 349 453 417 762 32 142 32 444 0 586
-71 321 -210 569 -445 794 -193 184 -420 305 -706 376 -85 21 -98 21 -1346 23
-693 1 -1286 -2 -1318 -7z m2526 -324 c302 -45 581 -214 766 -465 204 -275
276 -642 191 -973 -99 -391 -385 -699 -767 -827 -181 -60 -175 -60 -1433 -60
-1258 0 -1252 0 -1433 60 -621 209 -952 882 -736 1498 77 218 221 413 414 557
131 98 335 183 503 209 135 21 2356 22 2495 1z"/>
<path d="M1410 3409 c-266 -24 -505 -175 -646 -407 -300 -493 -30 -1139 533
-1273 158 -38 344 -26 497 31 363 136 596 517 548 897 -59 468 -464 795 -932
752z m213 -334 c177 -46 324 -183 378 -354 29 -91 29 -231 0 -322 -56 -175
-219 -322 -399 -360 -78 -16 -214 -7 -287 19 -206 75 -355 285 -355 502 0 201
137 410 318 487 104 44 240 55 345 28z"/>
</g>
</svg>
